<svg xmlns="http://www.w3.org/2000/svg" width="32" height="23.36" viewBox="0 0 16 11.68"><path d="M15.718 7.62a.858.858 0 00.116-.43.837.837 0 00-.8-.83l-1.837-3.71a1.259 1.259 0 00.089-.47 1.312 1.312 0 00-2.62-.09l-1.8 1.8h-2.18V1.01A1.019 1.019 0 005.671-.01H2.885A1.019 1.019 0 001.87 1.01v2.88h-.565a.75.75 0 00-.744.75v1.73a.741.741 0 00.744.74h1.762v.46h-1.01a2.06 2.06 0 000 4.12h7.249a2.06 2.06 0 100-4.12H6.885v-.46h2.6a.741.741 0 00.744-.74v-1.5l1.344-1.44a1.359 1.359 0 00.406.06 1.039 1.039 0 00.251-.02l1.953 3.56a.832.832 0 00.121.62l-1.49 1.49-.6-.6-.4.4.988.99a1.873 1.873 0 002.916-2.31zM3.3 1.43h1.952v2.3H3.3v-2.3zm3.866 7.98v-.65h.944v.65h1.014v-.65h.179a.868.868 0 01.611 1.48.843.843 0 01-.611.25H8.148v-.44H7.133v.44h-.944v-.44H5.175v.44H4.23v-.44H3.216v.44H2.057a.844.844 0 01-.611-.25.87.87 0 01.611-1.48h.179v.65h1.015v-.65H4.2v.65h1.01v-.65h.945v.65h1.014zm4.807-6.79a.44.44 0 11.438-.44.441.441 0 01-.436.44zm3.023 4.9a.33.33 0 11.328-.33.331.331 0 01-.324.33z" fill="#fff" fill-rule="evenodd"/></svg>