<svg width="272" height="60" fill="none" xmlns="http://www.w3.org/2000/svg"><path d="M110.432 52.464c-.288-.48-1.504-2.4-1.936-2.992v-.496h1.936V47.6h-1.936v-3.008h-1.456V47.6h-2.176v1.376h2.064c-.464 2.064-1.408 4.48-2.416 5.744.256.4.592 1.056.736 1.472.656-.96 1.296-2.416 1.792-3.984v7.056h1.456v-7.952c.4.8.848 1.664 1.056 2.192l.88-1.04zm8.768.24v-1.36h-3.536v-2.528h3.056v-1.36h-3.056v-2.864h-1.456v2.864h-1.376c.144-.608.272-1.232.368-1.888l-1.376-.224c-.256 1.856-.752 3.696-1.568 4.88.32.16.928.544 1.184.752.384-.592.72-1.328.992-2.16h1.776v2.528h-3.664v1.36h2.896c-.88 1.904-2.336 3.696-3.856 4.656.32.272.768.784.992 1.152 1.408-1.008 2.688-2.688 3.632-4.56v5.312h1.456V53.84c.768 1.776 1.824 3.504 2.896 4.544a5.821 5.821 0 011.088-1.168c-1.232-.992-2.448-2.736-3.2-4.512h2.752zm6.448-.256h2.8v-1.44h-6.944v1.44h2.656v4.288c-1.216.224-2.32.432-3.184.576l.432 1.504c2.048-.448 4.912-1.072 7.568-1.68l-.112-1.344c-1.072.224-2.16.448-3.216.64v-3.984zm5.696-6.976c.784.56 1.712 1.392 2.16 1.952l1.04-.928c-.464-.544-1.44-1.328-2.224-1.84l-.976.816zm3.76 3.408v-1.456h-4.592a52.816 52.816 0 01-.032-2.768h-1.6c0 .928.032 1.856.064 2.768h-8.016v1.456h8.112c.4 5.76 1.664 10.416 4.304 10.416 1.328 0 1.856-.784 2.112-3.664a3.769 3.769 0 01-1.312-.848c-.096 2.08-.288 2.944-.672 2.944-1.392 0-2.512-3.808-2.864-8.848h4.496zm5.44.544c1.424-1.072 2.64-2.272 3.408-3.392.848 1.168 2.16 2.368 3.6 3.392h-7.008zm-.304 1.376h7.488v-1.248a20.076 20.076 0 002.832 1.664c.256-.448.592-.976.944-1.344-2.496-.976-5.152-2.928-6.848-5.28h-1.536c-1.2 1.952-3.808 4.256-6.544 5.504.32.32.72.88.88 1.216a19.69 19.69 0 002.784-1.664V50.8zm-2.752 3.056h3.968a27.245 27.245 0 01-1.488 3.344l-2.368.08.192 1.456c2.72-.112 6.784-.288 10.592-.48.288.384.528.736.704 1.04l1.36-.848c-.736-1.184-2.256-2.88-3.712-4.112l-1.28.688c.624.56 1.264 1.232 1.856 1.904-1.952.08-3.936.16-5.712.224.576-1.024 1.168-2.224 1.696-3.296h7.328v-1.392h-13.136v1.392zm21.984-.288a79.315 79.315 0 00-2.448-2.096c.8-1.056 1.504-2.224 1.984-3.44l-.832-.56-.256.048h-1.104v-2.944h-1.472v2.944h-2.416v1.36h4.192c-1.088 2-2.928 3.856-4.752 4.896.224.288.592.992.736 1.376.752-.48 1.52-1.088 2.24-1.792v5.904h1.472v-6.368c.656.656 1.376 1.424 1.744 1.888l.912-1.216zm4.448 3.776v-6.272h3.232v-1.44h-3.232v-4.928h-1.52v4.928h-3.232v1.44h3.232v6.272h-3.872v1.472h8.96v-1.472h-3.568zm20.202-8.016h-3.92v-.832h3.168v-.864h-3.168v-.8h-1.344v.8h-3.008v.864h3.008v.832h-3.856v.88h9.12v-.88zm-3.808 4.208h2.384c-.4.32-.864.656-1.296.944a6.356 6.356 0 01-1.088-.928v-.016zm-3.136-1.888h4.8v1.088h-4.8v-1.088zm6.112 1.6v-2.416h-7.36v2.704h2.736c-1.088.816-2.576 1.488-4 1.936.256.224.656.72.832.96 1.056-.4 2.176-.944 3.168-1.584v2.032h1.312v-2.256c.992.96 2.368 1.76 3.712 2.176.176-.272.528-.736.784-.944a9.59 9.59 0 01-2.24-.88 14.355 14.355 0 001.84-1.248l-.784-.48zm-8.976 4.048v-10.72h10.496v10.72h-10.496zm-1.392-12.064v14.032h1.392v-.624h10.496v.624h1.456V45.232h-13.344zm19.76 9.504h-.864v-9.808h-1.2v9.808h-.816v-7.44h-1.072v10.112h1.072v-1.472h2.88v.992h1.04v-9.632h-1.04v7.44zm5.328-1.024v1.664h-1.936v-1.664h1.936zm1.216 2.736v-3.792h-4.336v4.672h1.184v-.88h3.152zm-4.352-6.096c1.728-.384 2.752-.96 3.392-1.824 1.136.592 2.448 1.328 3.216 1.824h-6.608zm8.096 0h-1.28l.848-.944c-.88-.544-2.464-1.36-3.728-1.952.032-.128.064-.24.096-.368h3.584v-1.216h-3.36c.032-.4.064-.832.08-1.296h-1.376c-.016.48-.048.912-.096 1.296h-3.392v1.216h3.12c-.416 1.152-1.328 1.792-3.376 2.192.256.256.576.736.704 1.072h-.912V51.6h6.64v6.032c0 .24-.08.304-.336.304-.272.016-1.136.016-2.08-.016.208.368.432.944.512 1.344 1.232 0 2.064-.032 2.592-.24.544-.224.704-.608.704-1.36V51.6h1.056v-1.248zm2 3.376c-.16 1.376-.464 2.784-.944 3.744.304.112.896.384 1.136.56.496-1.024.864-2.576 1.072-4.08l-1.264-.224zm4.336-1.12c.128.336.224.64.288.896l1.136-.544c-.224-.88-.88-2.24-1.536-3.28l-1.072.464c.24.4.464.832.672 1.28l-2.128.08c1.072-1.328 2.272-3.088 3.184-4.544l-1.264-.544a29.818 29.818 0 01-1.616 2.784 9.321 9.321 0 00-.784-.928c.576-.864 1.248-2.128 1.824-3.216l-1.344-.48c-.288.864-.816 2.016-1.312 2.896l-.432-.384-.72.992c.704.672 1.52 1.536 2.016 2.24-.32.448-.624.864-.928 1.248l-1.12.032.128 1.312c.736-.048 1.584-.096 2.496-.144v6.512h1.328v-6.592l1.184-.08zm-.832 1.408c.4.976.832 2.24.976 3.072l1.184-.416c-.176-.816-.608-2.064-1.04-3.024l-1.12.368zm4.288.704h3.6v2.752h-3.6V54.72zm3.6-7.952v2.624h-3.6v-2.624h3.6zm0 6.608h-3.6v-2.64h3.6v2.64zm1.504 4.096V45.424h-6.56v12.048h-1.584v1.344h9.296v-1.344h-1.152zM71.25 18.36h-6.11v-1.876c0-.875-.078-1.432-.234-1.672-.156-.24-.416-.359-.781-.359-.396 0-.698.162-.906.485-.198.322-.297.812-.297 1.468 0 .844.114 1.48.344 1.907.218.427.838.942 1.859 1.546 2.927 1.74 4.77 3.167 5.531 4.282.76 1.114 1.14 2.911 1.14 5.39 0 1.802-.213 3.13-.64 3.985-.416.854-1.229 1.573-2.437 2.156-1.209.573-2.615.86-4.219.86-1.76 0-3.266-.334-4.516-1-1.24-.667-2.052-1.516-2.437-2.548-.386-1.03-.578-2.494-.578-4.39v-1.657h6.11v3.079c0 .948.082 1.557.25 1.828.176.27.483.406.921.406.438 0 .76-.172.969-.516.219-.343.328-.854.328-1.53 0-1.49-.203-2.464-.61-2.923-.416-.458-1.442-1.224-3.078-2.297-1.635-1.083-2.718-1.87-3.25-2.359-.53-.49-.974-1.167-1.328-2.031-.343-.865-.515-1.969-.515-3.313 0-1.937.244-3.354.734-4.25.5-.896 1.302-1.594 2.406-2.094 1.104-.51 2.438-.765 4-.765 1.709 0 3.162.276 4.36.828 1.208.552 2.005 1.25 2.39 2.094.396.833.594 2.255.594 4.265v1zm17.656 7.156c0 2.541-.062 4.343-.187 5.406a5.938 5.938 0 01-1.125 2.89c-.625.876-1.474 1.547-2.547 2.016-1.073.469-2.323.703-3.75.703-1.354 0-2.573-.218-3.656-.656-1.073-.448-1.938-1.115-2.594-2-.656-.885-1.047-1.849-1.172-2.89-.125-1.042-.188-2.865-.188-5.47v-4.328c0-2.541.058-4.338.172-5.39a6.163 6.163 0 011.125-2.906c.636-.875 1.49-1.547 2.563-2.016 1.073-.469 2.323-.703 3.75-.703 1.354 0 2.568.224 3.64.672 1.084.437 1.954 1.099 2.61 1.984.656.886 1.047 1.85 1.172 2.89.125 1.042.187 2.865.187 5.47v4.328zm-6.578-8.313c0-1.177-.068-1.927-.203-2.25-.125-.333-.39-.5-.797-.5-.344 0-.61.136-.797.406-.177.26-.265 1.042-.265 2.344v11.813c0 1.468.057 2.375.171 2.718.126.344.407.516.844.516.448 0 .735-.198.86-.594.125-.396.187-1.338.187-2.828V17.203zm23.734-6.5V36h-5.765l-3.422-11.5V36h-5.5V10.703h5.5l3.687 11.39v-11.39h5.5zm17.688 14.813c0 2.541-.062 4.343-.188 5.406a5.935 5.935 0 01-1.124 2.89c-.626.876-1.474 1.547-2.547 2.016-1.073.469-2.323.703-3.75.703-1.355 0-2.573-.218-3.657-.656-1.073-.448-1.937-1.115-2.593-2-.657-.885-1.047-1.849-1.172-2.89-.125-1.042-.188-2.865-.188-5.47v-4.328c0-2.541.058-4.338.172-5.39a6.163 6.163 0 011.125-2.906c.636-.875 1.49-1.547 2.563-2.016 1.073-.469 2.323-.703 3.75-.703 1.354 0 2.567.224 3.64.672 1.084.437 1.953 1.099 2.61 1.984.656.886 1.047 1.85 1.171 2.89.126 1.042.188 2.865.188 5.47v4.328zm-6.578-8.313c0-1.177-.068-1.927-.203-2.25-.125-.333-.391-.5-.797-.5-.344 0-.61.136-.797.406-.177.26-.266 1.042-.266 2.344v11.813c0 1.468.058 2.375.172 2.718.125.344.407.516.844.516.448 0 .734-.198.859-.594.125-.396.188-1.338.188-2.828V17.203zm20.047-6.5v5.063l-4.907 15.171h4.907V36h-12.125v-3.672l5.062-16.562h-4.468v-5.063h11.531zm13.078 0L154.062 36h-6.734L147 31.453h-2.359L144.25 36h-6.812l3.343-25.297h9.516zm-3.485 16.266c-.333-2.865-.666-6.401-1-10.61-.666 4.834-1.083 8.37-1.25 10.61h2.25zm24.047-16.266l-3.765 11.422L171.219 36h-6.797l-2.656-10.844V36h-6.578V10.703h6.578v9.828l2.922-9.828h6.171zm8.094 0V36h-6.578V10.703h6.578zm23.656 11.031h-6.578v-4.406c0-1.281-.073-2.078-.219-2.39-.135-.323-.442-.485-.921-.485-.542 0-.886.193-1.032.578-.145.386-.218 1.219-.218 2.5v11.75c0 1.23.073 2.032.218 2.407.146.375.474.562.985.562.489 0 .807-.188.953-.563.156-.375.234-1.255.234-2.64v-3.172h6.578v.984c0 2.615-.187 4.47-.562 5.563-.365 1.094-1.182 2.052-2.453 2.875-1.261.823-2.818 1.234-4.672 1.234-1.927 0-3.516-.349-4.766-1.047s-2.078-1.661-2.484-2.89c-.406-1.24-.61-3.1-.61-5.578v-7.391c0-1.823.063-3.188.188-4.094.125-.916.495-1.797 1.109-2.64.625-.844 1.485-1.506 2.579-1.985 1.104-.49 2.369-.734 3.796-.734 1.938 0 3.537.375 4.797 1.125 1.261.75 2.089 1.687 2.485 2.812.395 1.115.593 2.854.593 5.22v2.405zM220 25.516c0 2.541-.062 4.343-.188 5.406a5.935 5.935 0 01-1.124 2.89c-.626.876-1.474 1.547-2.547 2.016-1.073.469-2.323.703-3.75.703-1.355 0-2.573-.218-3.657-.656-1.073-.448-1.937-1.115-2.593-2-.657-.885-1.047-1.849-1.172-2.89-.125-1.042-.188-2.865-.188-5.47v-4.328c0-2.541.058-4.338.172-5.39a6.163 6.163 0 011.125-2.906c.636-.875 1.49-1.547 2.563-2.016 1.073-.469 2.323-.703 3.75-.703 1.354 0 2.567.224 3.64.672 1.084.437 1.953 1.099 2.61 1.984.656.886 1.047 1.85 1.171 2.89.126 1.042.188 2.865.188 5.47v4.328zm-6.578-8.313c0-1.177-.068-1.927-.203-2.25-.125-.333-.391-.5-.797-.5-.344 0-.61.136-.797.406-.177.26-.266 1.042-.266 2.344v11.813c0 1.468.058 2.375.172 2.718.125.344.407.516.844.516.448 0 .734-.198.859-.594.125-.396.188-1.338.188-2.828V17.203zm13.062 13.64V36h-4.765v-5.156h4.765zm8.469-20.14v20.235h4V36h-10.578V10.703h6.578zm18.859 0v5.063h-3.906V36h-6.578V15.766h-3.89v-5.063h14.374zm1.5 0h4.922c3.177 0 5.323.146 6.438.438 1.125.291 1.979.77 2.562 1.437.584.667.948 1.412 1.094 2.235.146.812.219 2.416.219 4.812v8.86c0 2.27-.109 3.791-.328 4.562-.209.76-.578 1.36-1.11 1.797-.531.427-1.187.729-1.968.906-.782.167-1.959.25-3.532.25h-8.297V10.703zm6.579 4.328v16.64c.948 0 1.531-.187 1.75-.562.218-.385.328-1.422.328-3.109v-9.828c0-1.146-.037-1.88-.11-2.203-.073-.323-.239-.557-.5-.703-.26-.157-.75-.235-1.468-.235zM23.82 6.912l.18.111.18-.111c.69-.427 1.415-.806 2.157-1.127l.632-.273-.6-.34a12.314 12.314 0 00-2.263-.993L24 4.144l-.106.035c-.786.254-1.547.589-2.263.994l-.6.339.632.274c.742.32 1.468.7 2.157 1.126z" fill="#fff"/><path d="M48 21.261c0-5.274-2.821-10.206-7.367-12.894C37.945 3.82 33.013 1 27.74 1a15 15 0 00-3.739.474A14.998 14.998 0 0020.261 1C14.987 1 10.055 3.821 7.367 8.367 2.82 11.055 0 15.987 0 21.26a15 15 0 00.474 3.739A15.016 15.016 0 000 28.739c0 5.274 2.821 10.206 7.367 12.894C10.055 46.18 14.987 49 20.26 49a15 15 0 003.739-.474c1.22.314 2.477.474 3.739.474 5.274 0 10.206-2.821 12.894-7.367C45.18 38.945 48 34.013 48 28.74a15 15 0 00-.474-3.739c.314-1.22.474-2.477.474-3.739zm-5.92 11.053l-.14.117.017.181a14.273 14.273 0 01-1.825 8.52 14.272 14.272 0 01-8.52 1.825l-.182-.018-.116.142A14.202 14.202 0 0124 47.818a14.202 14.202 0 01-7.314-4.737l-.116-.142-.183.018a14.272 14.272 0 01-8.52-1.826 14.274 14.274 0 01-1.824-8.519l.018-.181-.141-.117A14.194 14.194 0 011.183 25a14.194 14.194 0 014.737-7.314l.14-.116-.017-.182a14.274 14.274 0 011.825-8.52 14.272 14.272 0 018.52-1.825l.182.018.116-.142A14.203 14.203 0 0124 2.182c2.881.78 5.41 2.414 7.314 4.737l.116.142.183-.018a14.272 14.272 0 018.52 1.826 14.272 14.272 0 011.824 8.519l-.018.181.141.117A14.194 14.194 0 0146.817 25a14.194 14.194 0 01-4.737 7.314z" fill="#fff"/><path d="M36.663 12.082l.049.205.206.05c.786.185 1.565.43 2.315.726l.64.254-.185-.664a12.405 12.405 0 00-.893-2.298l-.05-.1-.1-.05a12.441 12.441 0 00-2.298-.894l-.664-.185.253.641c.297.75.542 1.529.727 2.315zm-7.534.025l.128.197.231-.05a17.032 17.032 0 012.046-.308l.455-.04-.165-.426a12.354 12.354 0 00-1.108-2.182l-.129-.202-.233.052c-.799.176-1.583.432-2.33.763l-.418.183.293.35a16.99 16.99 0 011.23 1.663zM41.977 25l.111.18a16.87 16.87 0 011.127 2.157l.273.632.34-.6c.404-.715.739-1.477.994-2.263l.034-.106-.034-.106a12.34 12.34 0 00-.995-2.264l-.339-.6-.273.633c-.322.742-.7 1.467-1.127 2.156l-.11.18zm-4.457-7.823l-.426-.165-.04.454c-.06.685-.164 1.373-.308 2.045l-.05.232.198.128a17.3 17.3 0 011.662 1.23l.349.293.184-.417c.33-.749.587-1.532.763-2.33l.052-.234-.202-.129a12.37 12.37 0 00-2.182-1.107zm-6.376-.706l.103.382c.046.17.09.342.13.515l.049.207.206.048c.173.04.344.084.514.13l.383.103.047-.393c.03-.244.052-.494.067-.743l.023-.386-.386.023c-.25.015-.5.037-.743.067l-.393.047zm5.774 21.192l-.206.05-.048.205c-.186.786-.43 1.565-.727 2.315l-.253.64.664-.184c.793-.22 1.566-.522 2.297-.894l.1-.05.05-.1a12.41 12.41 0 00.894-2.297l.185-.665-.64.254c-.751.296-1.53.541-2.316.727zm2.172-8.64l-.185-.417-.35.293a17.3 17.3 0 01-1.661 1.23l-.198.128.05.232c.144.672.247 1.36.308 2.045l.04.455.425-.166a12.37 12.37 0 002.183-1.107l.202-.13-.052-.232a12.387 12.387 0 00-.763-2.331zM36.25 25l-.29-.256a12.513 12.513 0 00-.57-.477l-.31-.244-.198.343a19.39 19.39 0 01-.271.454L34.5 25l.111.18c.093.15.183.301.27.453l.198.344.312-.245c.193-.152.385-.312.57-.476l.288-.256zm-1.76-4.347l-.278-.132a14.848 14.848 0 00-4.41-1.324 14.832 14.832 0 00-1.323-4.409l-.133-.277-.29.102A14.925 14.925 0 0024 16.795a14.922 14.922 0 00-4.057-2.182l-.29-.102-.132.277a14.833 14.833 0 00-1.323 4.41c-1.54.211-3.022.656-4.41 1.323l-.277.132.102.29A14.91 14.91 0 0015.795 25a14.911 14.911 0 00-2.182 4.057l-.102.29.277.132a14.845 14.845 0 004.41 1.323c.212 1.54.656 3.022 1.323 4.41l.132.277.29-.102A14.926 14.926 0 0024 33.205a14.9 14.9 0 004.057 2.182l.29.102.132-.277a14.824 14.824 0 001.323-4.41 14.85 14.85 0 004.41-1.323l.277-.132-.102-.29A14.91 14.91 0 0032.205 25a14.9 14.9 0 002.182-4.057l.102-.29zm-7.122 7.715A14.2 14.2 0 0124 29.766a14.204 14.204 0 01-3.368-1.398A14.196 14.196 0 0119.233 25a14.198 14.198 0 011.399-3.368A14.195 14.195 0 0124 20.234a14.2 14.2 0 013.368 1.398A14.2 14.2 0 0128.767 25a14.203 14.203 0 01-1.399 3.368zm-3.188 14.72l-.18-.111-.18.111c-.69.427-1.415.805-2.157 1.126l-.632.274.6.339c.716.405 1.477.74 2.263.994l.106.035.106-.035a12.346 12.346 0 002.264-.994l.6-.34-.633-.273a16.85 16.85 0 01-2.157-1.126zm5.308-5.343l-.23-.049-.129.197a16.979 16.979 0 01-1.23 1.663l-.293.349.417.184c.748.33 1.532.587 2.33.763l.234.052.129-.202a12.35 12.35 0 001.108-2.182l.165-.426-.455-.04a16.796 16.796 0 01-2.046-.309zm3.088-5.208l-.047-.393-.383.104c-.17.045-.342.09-.514.129l-.207.049-.048.206c-.04.173-.084.344-.13.515l-.103.382.393.047c.244.03.494.052.743.067l.386.024-.023-.387c-.015-.25-.038-.5-.067-.743zm-21.24 5.381l-.048-.205-.206-.05a16.864 16.864 0 01-2.315-.726l-.64-.254.184.665c.22.792.521 1.565.894 2.297l.05.1.1.05a12.44 12.44 0 002.297.894l.665.184-.254-.64a16.774 16.774 0 01-.727-2.315zm7.534-.025l-.128-.197-.23.05a16.82 16.82 0 01-2.047.308l-.454.04.165.426c.295.76.668 1.494 1.108 2.182l.129.202.233-.052a12.329 12.329 0 002.33-.763l.418-.184-.293-.35a16.96 16.96 0 01-1.23-1.662zm5.13-.644l.256-.29c.164-.183.324-.375.476-.569l.245-.31-.343-.198a16.438 16.438 0 01-.454-.271L24 35.5l-.18.111c-.15.093-.301.183-.455.271l-.342.197.244.311c.153.194.313.386.476.57l.257.289zM11.082 12.336l.206-.049.048-.205c.186-.786.43-1.565.727-2.315l.253-.64-.664.184a12.44 12.44 0 00-2.297.894l-.1.05-.05.1a12.396 12.396 0 00-.894 2.298l-.185.664.641-.254c.75-.296 1.528-.541 2.315-.727zm7.43-.081l.23.049.129-.197a16.83 16.83 0 011.23-1.663l.293-.35-.417-.183a12.324 12.324 0 00-2.33-.763l-.234-.052-.129.202c-.44.688-.813 1.422-1.108 2.182l-.165.425.454.041a16.8 16.8 0 012.047.309zm5.488.496l-.257.29c-.163.183-.323.375-.476.569l-.244.31.342.198c.154.088.305.178.455.271l.18.111.18-.111c.15-.093.3-.183.454-.271l.343-.197-.245-.311a12.021 12.021 0 00-.476-.57L24 12.751zM4.786 22.663l-.274-.632-.34.599a12.414 12.414 0 00-.994 2.264L3.144 25l.034.106c.255.786.59 1.547.995 2.264l.34.599.273-.632c.321-.742.7-1.468 1.126-2.156L6.023 25l-.111-.181a16.86 16.86 0 01-1.126-2.156zm4.124-1.686l.184.416.35-.293a17.312 17.312 0 011.662-1.23l.198-.127-.05-.232a16.978 16.978 0 01-.309-2.045l-.04-.454-.425.165c-.76.294-1.495.668-2.183 1.107l-.201.13.051.232c.176.799.433 1.582.763 2.331zm6.514-3.514l.047.393.382-.103c.17-.046.342-.09.514-.13l.207-.048.048-.207c.041-.173.084-.344.13-.515l.104-.382-.393-.047a12.02 12.02 0 00-.744-.067l-.385-.023.023.386c.015.25.037.5.067.743zm-4.944 15.36l.425.166.04-.455c.061-.685.165-1.373.31-2.045l.05-.232-.199-.128a17.312 17.312 0 01-1.662-1.23l-.35-.293-.183.417c-.33.749-.588 1.532-.763 2.33l-.052.234.202.129c.688.44 1.422.813 2.182 1.107zm2.638-8.457l-.197-.343-.311.244c-.194.152-.386.313-.57.477l-.29.256.289.256c.184.164.376.325.57.477l.31.244.198-.343c.088-.152.178-.304.271-.454L13.5 25l-.112-.18c-.093-.15-.183-.302-.27-.454zm3.737 9.163l-.103-.382c-.046-.17-.089-.342-.13-.514l-.048-.207-.207-.05a13.297 13.297 0 01-.514-.128l-.382-.104-.047.393c-.03.244-.052.494-.067.743l-.023.387.385-.024c.25-.015.5-.037.744-.067l.392-.047z" fill="#fff"/><path d="M26.031 23.119l-.05-.1-.1-.05a12.318 12.318 0 00-1.774-.738L24 22.196l-.106.035c-.606.198-1.203.446-1.775.738l-.099.05-.05.1a12.39 12.39 0 00-.738 1.774l-.035.107.035.106c.197.606.446 1.203.738 1.775l.05.1.1.05c.571.292 1.168.54 1.774.738l.106.035.107-.035a12.323 12.323 0 001.774-.738l.1-.05.05-.1c.292-.572.54-1.169.738-1.775l.035-.106-.035-.107a12.383 12.383 0 00-.738-1.774z" fill="#fff"/></svg>